<?xml version="1.0" standalone="no"?>
<!DOCTYPE svg PUBLIC "-//W3C//DTD SVG 20010904//EN"
 "http://www.w3.org/TR/2001/REC-SVG-20010904/DTD/svg10.dtd">
<svg version="1.0" xmlns="http://www.w3.org/2000/svg"
 width="1248.000000pt" height="378.000000pt" viewBox="0 0 1248.000000 378.000000"
 preserveAspectRatio="xMidYMid meet">

<g transform="translate(0.000000,378.000000) scale(0.100000,-0.100000)"
fill="#FFFFFF" stroke="none">
<path d="M2353 3676 l-28 -24 -5 -1324 c-6 -1486 3 -1346 -83 -1425 -108 -100
-291 -154 -570 -169 -148 -8 -361 9 -477 37 -168 42 -300 121 -342 207 -23 47
-23 48 -23 497 0 529 0 532 88 619 29 28 75 63 102 78 73 39 206 75 326 88
159 17 165 19 192 45 32 33 37 61 37 217 0 216 -20 237 -214 218 -521 -49
-882 -241 -989 -528 -20 -55 -21 -73 -25 -638 -4 -606 1 -711 37 -804 118
-309 598 -511 1210 -510 681 2 1162 250 1202 622 5 47 8 657 7 1405 l-3 1323
-32 31 c-30 31 -36 32 -160 45 -191 19 -217 18 -250 -10z"/>
<path d="M3560 2784 c-69 -7 -135 -13 -148 -13 -12 -1 -39 -16 -60 -35 l-37
-34 0 -904 c0 -832 1 -908 18 -967 71 -257 327 -438 745 -525 516 -108 1137
-23 1447 199 122 87 213 216 235 334 6 33 10 396 10 956 l0 902 -21 27 c-29
37 -47 43 -181 56 -185 18 -216 17 -241 -9 l-22 -22 -6 -852 c-4 -570 -9 -865
-17 -892 -14 -52 -109 -143 -187 -180 -185 -87 -550 -117 -850 -70 -103 16
-212 51 -286 92 -63 34 -144 121 -154 165 -4 18 -10 416 -14 883 -3 468 -10
856 -15 864 -9 13 -69 42 -83 40 -4 -1 -64 -7 -133 -15z"/>
<path d="M6532 2785 c-168 -18 -185 -22 -213 -51 l-24 -26 0 -926 c0 -1044 -5
-968 77 -1100 163 -257 610 -422 1149 -422 588 0 1036 182 1177 479 29 61 37
90 43 170 5 53 8 471 9 929 0 916 2 885 -60 917 -14 7 -96 20 -181 28 -171 17
-205 11 -228 -39 -8 -18 -11 -248 -11 -822 -1 -438 -5 -828 -10 -866 -11 -87
-42 -134 -128 -192 -70 -48 -177 -86 -316 -111 -116 -21 -442 -23 -571 -4
-257 38 -441 148 -468 278 -5 27 -11 402 -13 868 -3 451 -7 830 -9 843 -6 24
-60 63 -85 61 -8 -1 -70 -7 -138 -14z"/>
<path d="M12070 2791 c-110 -36 -179 -122 -180 -225 0 -144 97 -246 237 -246
96 0 162 36 208 114 90 153 -12 348 -189 362 -28 2 -62 0 -76 -5z m156 -58
c86 -44 131 -171 89 -254 -41 -81 -102 -122 -185 -123 -217 -3 -279 299 -80
389 45 20 125 15 176 -12z"/>
<path d="M12047 2683 c-4 -3 -7 -62 -7 -130 l0 -123 30 0 c29 0 30 1 30 51 0
47 2 50 23 47 15 -2 29 -18 45 -50 18 -39 27 -48 48 -48 21 0 24 3 18 22 -14
45 -34 87 -45 93 -7 5 -3 15 11 30 30 32 24 85 -10 102 -26 13 -132 18 -143 6z
m109 -47 c25 -19 8 -50 -30 -54 -23 -3 -26 0 -26 26 0 45 20 54 56 28z"/>
<path d="M9390 2741 c-225 -128 -247 -148 -224 -205 5 -14 194 -217 419 -452
226 -235 418 -439 427 -453 21 -30 23 -86 5 -117 -7 -12 -196 -214 -422 -449
-225 -235 -416 -439 -423 -452 -9 -16 -11 -38 -8 -59 6 -29 23 -44 133 -120
69 -47 140 -92 158 -99 37 -16 96 -6 127 22 11 10 189 194 395 410 206 215
381 394 389 397 28 11 79 6 100 -9 12 -8 193 -194 403 -414 210 -219 389 -402
397 -405 9 -3 35 -6 60 -6 39 0 59 10 171 86 71 47 136 95 146 106 9 11 17 36
17 55 0 31 -11 47 -83 122 -374 388 -756 790 -770 811 -9 13 -17 41 -17 62 0
46 -3 43 480 547 206 215 379 402 384 416 20 53 0 74 -154 167 -156 94 -198
106 -258 73 -15 -8 -191 -188 -392 -399 -201 -211 -379 -391 -396 -400 -67
-34 -66 -34 -476 394 -210 219 -392 403 -405 409 -49 23 -95 13 -183 -38z"/>
</g>
</svg>
