<svg width="838" height="769" viewBox="0 0 838 769" fill="none" xmlns="http://www.w3.org/2000/svg">
<path d="M192.25 281V578H644.75V281H653V558C653 573.733 640.483 586.25 624.75 586.25H212.25C196.517 586.25 184 573.733 184 558V281H192.25Z" stroke="black" stroke-width="40"/>
<path d="M558.25 377.5H594V413.25H558.25C533.583 413.25 509.272 406.994 486.75 395.375C442.062 418.612 388.438 418.612 343.75 395.375C321.228 406.994 296.739 413.25 272.25 413.25H236.5V377.5H272.25C297.096 377.5 321.942 369.099 343.75 353.726C387.365 384.292 443.135 384.292 486.75 353.726C508.558 369.099 533.404 377.5 558.25 377.5ZM558.25 270.25H594V306H558.25C533.583 306 509.272 299.744 486.75 288.125C442.062 311.362 388.438 311.362 343.75 288.125C321.228 299.744 296.739 306 272.25 306H236.5V270.25H272.25C297.096 270.25 321.942 261.849 343.75 246.476C387.365 277.042 443.135 277.042 486.75 246.476C508.558 261.849 533.404 270.25 558.25 270.25ZM558.25 484.75H594V520.5H558.25C533.583 520.5 509.272 514.244 486.75 502.625C442.062 525.862 388.438 525.862 343.75 502.625C321.228 514.244 296.739 520.5 272.25 520.5H236.5V484.75H272.25C297.096 484.75 321.942 476.349 343.75 460.976C387.365 491.542 443.135 491.542 486.75 460.976C508.558 476.349 533.404 484.75 558.25 484.75Z" fill="black"/>
</svg>
