<svg width="838" height="769" viewBox="0 0 838 769" fill="none" xmlns="http://www.w3.org/2000/svg">
<path d="M567 84H265C260.582 84 257 87.5817 257 92V568C257 572.418 260.582 576 265 576H567C571.418 576 575 572.418 575 568V92C575 87.5817 571.418 84 567 84Z" fill="none" stroke="black" stroke-width="40"/>
<path d="M302 576V627C302 631.418 305.582 635 310 635H362C366.418 635 370 631.418 370 627V576" fill="none" stroke="black" stroke-width="20"/>
<path d="M468 576V627C468 631.418 471.582 635 476 635H527C531.418 635 535 631.418 535 627V576" fill="none" stroke="black" stroke-width="20"/>
</svg>
